<svg width="13" height="12" viewBox="0 0 13 12" fill="none" xmlns="http://www.w3.org/2000/svg">
<path d="M10.35 11.5L12 9.66666M12 9.66666L10.35 7.83333M12 9.66666H8.7M6.5 8.13889H4.025C3.25744 8.13889 2.87366 8.13889 2.56137 8.24414C1.85825 8.48113 1.30802 9.0925 1.09473 9.87374C1 10.2207 1 10.6472 1 11.5M7.875 3.25C7.875 4.76878 6.7669 6 5.4 6C4.0331 6 2.925 4.76878 2.925 3.25C2.925 1.73122 4.0331 0.5 5.4 0.5C6.7669 0.5 7.875 1.73122 7.875 3.25Z" stroke="black" stroke-linecap="round" stroke-linejoin="round"/>
</svg>
